<svg xmlns="http://www.w3.org/2000/svg" width="800" height="200" viewBox="0 0 420 100" fill="none">
  <defs>
    <linearGradient id="cw-grad-1" x1="0%" y1="100%" x2="0%" y2="0%">
      <stop offset="0%" style="stop-color:#8B5CF6"/>
      <stop offset="100%" style="stop-color:#14B8A6"/>
    </linearGradient>
    <linearGradient id="cw-grad-2" x1="0%" y1="100%" x2="0%" y2="0%">
      <stop offset="0%" style="stop-color:#6366F1"/>
      <stop offset="100%" style="stop-color:#EC4899"/>
    </linearGradient>
    <linearGradient id="cw-text-grad" x1="0%" y1="0%" x2="100%" y2="0%">
      <stop offset="0%" style="stop-color:#14B8A6"/>
      <stop offset="50%" style="stop-color:#8B5CF6"/>
      <stop offset="100%" style="stop-color:#EC4899"/>
    </linearGradient>
  </defs>

  <!-- Icon: Column Weights -->
  <g transform="translate(18, 12) scale(0.62)">
    <rect x="20" y="24" width="80" height="6" rx="3" fill="#334155"/>
    <rect x="28" y="38" width="14" height="50" rx="4" fill="url(#cw-grad-1)" opacity="0.9"/>
    <rect x="48" y="30" width="14" height="58" rx="4" fill="url(#cw-grad-2)" opacity="0.85"/>
    <rect x="68" y="42" width="14" height="46" rx="4" fill="url(#cw-grad-1)" opacity="0.75"/>
    <rect x="88" y="34" width="14" height="54" rx="4" fill="url(#cw-grad-2)" opacity="0.9"/>
    <line x1="24" y1="96" x2="96" y2="96" stroke="rgba(255,255,255,0.1)" stroke-width="1"/>
    <circle cx="35" cy="46" r="2" fill="rgba(255,255,255,0.3)"/>
    <circle cx="55" cy="38" r="2" fill="rgba(255,255,255,0.3)"/>
    <circle cx="75" cy="50" r="2" fill="rgba(255,255,255,0.3)"/>
    <circle cx="95" cy="42" r="2" fill="rgba(255,255,255,0.3)"/>
  </g>

  <!-- Wordmark -->
  <text x="108" y="68" font-family="Space Grotesk, Inter, -apple-system, sans-serif" font-weight="700" font-size="46" letter-spacing="-0.02em">
    <tspan fill="#94A3B8">Fit</tspan><tspan fill="url(#cw-text-grad)">Ledger</tspan>
  </text>
</svg>